<?xml version="1.0" standalone="no"?>
<!DOCTYPE svg PUBLIC "-//W3C//DTD SVG 20010904//EN"
 "http://www.w3.org/TR/2001/REC-SVG-20010904/DTD/svg10.dtd">
<svg version="1.0" xmlns="http://www.w3.org/2000/svg"
 width="736.000000pt" height="1104.000000pt" viewBox="0 0 736.000000 1104.000000"
 preserveAspectRatio="xMidYMid meet">

<g transform="translate(0.000000,1104.000000) scale(0.100000,-0.100000)"
fill="#000000" stroke="none">
<path d="M4430 7768 c-51 -21 -92 -26 -121 -16 -33 11 -61 -3 -57 -30 2 -8 -3
-17 -11 -20 -9 -3 -11 0 -6 9 5 8 -6 1 -23 -15 -17 -15 -35 -25 -40 -22 -20
12 -40 -6 -45 -41 -4 -19 -13 -43 -21 -52 -17 -18 -17 -13 20 -116 4 -11 6
-31 6 -45 -2 -22 -1 -23 7 -5 8 19 9 18 13 -5 3 -15 6 -6 7 23 1 35 -5 57 -19
78 -17 23 -19 33 -10 49 6 11 15 20 20 20 6 0 10 13 10 28 0 31 16 52 39 52 8
0 32 16 53 37 35 34 38 35 61 20 22 -14 26 -13 66 14 l43 28 26 -24 c15 -14
32 -25 39 -25 24 0 22 17 -5 42 -23 22 -31 24 -52 16z m-150 -32 c0 -3 -4 -8
-10 -11 -5 -3 -10 -1 -10 4 0 6 5 11 10 11 6 0 10 -2 10 -4z"/>
<path d="M4601 7623 c30 -54 72 -134 95 -178 23 -44 47 -80 52 -80 6 0 14 -4
19 -9 5 -5 3 -6 -4 -2 -7 4 -13 4 -13 1 0 -19 135 -243 143 -238 6 3 7 1 3 -5
-4 -6 16 -53 44 -104 27 -51 73 -137 102 -192 49 -91 70 -117 85 -103 5 6 -57
121 -299 552 -43 77 -83 139 -88 138 -5 -2 -7 3 -5 10 3 6 -22 59 -54 115 -33
57 -65 124 -72 148 -11 36 -18 44 -37 44 -23 0 -21 -3 29 -97z"/>
<path d="M4148 7254 c-1 -73 -2 -76 -8 -29 -4 28 -8 -91 -8 -263 -2 -287 -1
-313 15 -310 15 3 16 33 14 338 -1 184 -4 337 -7 339 -2 2 -5 -31 -6 -75z"/>
<path d="M3375 6840 c-44 -7 -40 -8 35 -8 95 0 155 -5 350 -32 74 -10 137 -16
139 -14 8 7 -57 18 -244 40 -22 2 -64 9 -94 14 -60 11 -109 11 -186 0z"/>
<path d="M3180 6826 c0 -2 7 -7 16 -10 8 -3 12 -2 9 4 -6 10 -25 14 -25 6z"/>
<path d="M3268 6823 c12 -2 30 -2 40 0 9 3 -1 5 -23 4 -22 0 -30 -2 -17 -4z"/>
<path d="M3015 6810 l-80 -6 70 -1 c39 -1 93 2 120 7 47 7 47 7 10 7 -22 0
-76 -4 -120 -7z"/>
<path d="M2585 6788 c-30 -16 -65 -50 -60 -58 2 -4 -1 -7 -8 -7 -31 -2 -262
-35 -266 -38 -1 -2 31 -3 73 -2 41 1 70 5 63 9 -8 5 -5 8 8 8 11 0 27 -4 35
-10 9 -6 17 -5 21 2 4 7 61 11 155 12 138 0 164 -3 349 -41 110 -23 261 -51
335 -63 74 -11 162 -25 195 -30 33 -5 141 -21 240 -36 99 -14 207 -30 240 -35
33 -4 97 -6 143 -2 50 4 82 2 82 -4 0 -27 -31 -43 -115 -58 -49 -9 -113 -23
-141 -30 l-51 -15 -9 -712 c-5 -392 -7 -794 -6 -892 2 -99 0 -200 -4 -225 -7
-46 -7 -46 -16 -16 -4 17 -6 63 -2 103 3 40 2 72 -2 72 -6 0 -9 330 -9 768 0
422 -4 792 -8 824 -7 48 -12 58 -35 67 -23 9 -477 89 -687 121 -33 5 -184 29
-336 54 -372 62 -536 81 -556 65 -12 -10 -16 -10 -23 1 -5 8 -6 18 -3 24 3 5
1 6 -5 2 -8 -5 -13 1 -14 16 -2 13 -5 -636 -8 -1442 -3 -806 -3 -1481 -2
-1501 3 -26 10 -40 27 -47 12 -6 130 -40 261 -77 361 -100 516 -144 904 -256
373 -107 391 -112 455 -128 43 -11 46 -9 335 171 36 22 126 77 200 123 330
200 423 259 446 279 l25 21 5 294 c3 199 1 297 -6 301 -8 5 -8 50 -1 146 6 84
8 447 5 914 -5 633 -3 810 9 965 8 105 14 191 13 192 -1 1 -35 -7 -76 -17 -41
-11 -85 -20 -98 -20 -13 0 -21 -4 -18 -8 2 -4 -3 -8 -13 -8 -9 0 -94 -15 -188
-34 l-171 -34 -36 32 c-20 18 -39 32 -42 32 -2 0 -66 9 -142 20 -141 21 -197
28 -412 55 -69 9 -228 29 -355 46 -126 16 -266 34 -310 39 -44 6 -120 15 -170
21 -131 15 -224 13 -254 -5 -9 -6 -9 -3 1 13 7 11 16 17 21 12 12 -12 67 10
67 26 0 16 -28 16 -55 1z m35 -8 c-8 -5 -22 -9 -30 -9 -10 0 -8 3 5 9 27 12
43 12 25 0z m375 -360 c259 -44 526 -90 595 -102 l125 -23 0 -1092 0 -1092
-58 -59 c-66 -66 -132 -109 -245 -158 -221 -96 -484 -48 -739 133 -122 87
-289 292 -345 423 l-23 55 -3 1008 c-1 555 0 1012 3 1016 2 5 53 0 112 -11 59
-10 320 -54 578 -98z m-778 68 c-3 -7 -5 -2 -5 12 0 14 2 19 5 13 2 -7 2 -19
0 -25z m0 -80 c-3 -7 -5 -2 -5 12 0 14 2 19 5 13 2 -7 2 -19 0 -25z m-9 -2038
c0 -25 -4 -56 -8 -70 -5 -16 -8 16 -8 85 0 84 2 101 9 70 4 -22 8 -60 7 -85z
m1659 48 c-2 -13 -4 -3 -4 22 0 25 2 35 4 23 2 -13 2 -33 0 -45z m-1353 -316
c3 -5 -1 -9 -9 -9 -8 0 -12 4 -9 9 3 4 7 8 9 8 2 0 6 -4 9 -8z"/>
<path d="M2802 5948 c-18 -18 -15 -32 18 -63 52 -50 134 -204 118 -221 -4 -3
-42 10 -85 30 -141 63 -195 65 -270 9 -92 -68 -147 -282 -118 -458 45 -277
155 -512 275 -591 38 -26 44 -26 133 -20 102 7 91 11 230 -77 111 -71 156 -65
259 31 80 75 137 198 173 372 65 320 -131 691 -364 690 -31 0 -73 -4 -94 -9
-30 -7 -40 -6 -44 5 -3 8 -15 14 -28 14 -30 0 -50 25 -74 93 -22 64 -83 178
-104 195 -10 9 -16 9 -25 0z m-11 -315 c27 -14 49 -30 49 -34 0 -4 8 -10 18
-13 10 -4 27 -23 38 -43 10 -20 27 -50 36 -67 25 -45 24 -145 -3 -195 -29 -57
-84 -101 -128 -103 -58 -2 -70 1 -138 33 -60 29 -66 34 -95 97 -26 56 -31 79
-31 139 0 173 119 260 254 186z"/>
<path d="M3009 5843 c-13 -16 -12 -17 4 -4 16 13 21 21 13 21 -2 0 -10 -8 -17
-17z"/>
<path d="M2985 5809 c-4 -6 -5 -12 -2 -15 2 -3 7 2 10 11 7 17 1 20 -8 4z"/>
<path d="M2971 5764 c0 -11 3 -14 6 -6 3 7 2 16 -1 19 -3 4 -6 -2 -5 -13z"/>
<path d="M3124 5718 l-19 -23 23 19 c21 18 27 26 19 26 -2 0 -12 -10 -23 -22z"/>
<path d="M2961 5714 c0 -11 3 -14 6 -6 3 7 2 16 -1 19 -3 4 -6 -2 -5 -13z"/>
<path d="M3065 5679 c-34 -21 -29 -25 10 -7 14 6 25 15 25 20 0 10 1 10 -35
-13z"/>
<path d="M2683 6793 c9 -2 23 -2 30 0 6 3 -1 5 -18 5 -16 0 -22 -2 -12 -5z"/>
<path d="M4005 6767 c56 -12 74 -13 64 -3 -2 2 -31 7 -64 10 l-60 5 60 -12z"/>
<path d="M4316 6718 c-9 -36 -7 -48 8 -48 9 0 16 12 18 28 3 30 -5 30 141 8
48 -7 84 -9 80 -5 -7 6 -202 39 -232 39 -5 0 -11 -10 -15 -22z"/>
<path d="M4053 6695 c-11 -25 -2 -42 17 -30 12 7 14 55 3 55 -5 0 -13 -11 -20
-25z"/>
<path d="M4598 6693 c7 -3 16 -2 19 1 4 3 -2 6 -13 5 -11 0 -14 -3 -6 -6z"/>
</g>
</svg>
